HIERARCHY
ROOT Hips
{
	OFFSET 0.00000 0.00000 0.00000
	CHANNELS 6 Xposition Yposition Zposition Zrotation Yrotation Xrotation 
	JOINT LHipJoint
	{
		OFFSET 0 0 0
		CHANNELS 3 Zrotation Yrotation Xrotation
		JOINT LeftHip
		{
			OFFSET 1.62964 -1.40469 0.78906
			CHANNELS 3 Zrotation Yrotation Xrotation
			JOINT LeftKnee
			{
				OFFSET 2.29640 -6.30932 0.00000
				CHANNELS 3 Zrotation Yrotation Xrotation
				JOINT LeftAnkle
				{
					OFFSET 2.29451 -6.30412 0.00000
					CHANNELS 3 Zrotation Yrotation Xrotation
					JOINT LeftToe
					{
						OFFSET 0.03611 -0.09921 1.56387
						CHANNELS 3 Zrotation Yrotation Xrotation
						End Site
						{
							OFFSET 0.00000 -0.00000 0.80291
						}
					}
				}
			}
		}
	}
	JOINT RHipJoint
	{
		OFFSET 0 0 0
		CHANNELS 3 Zrotation Yrotation Xrotation
		JOINT RightHip
		{
			OFFSET -1.73712 -1.40469 0.78906
			CHANNELS 3 Zrotation Yrotation Xrotation
			JOINT RightKnee
			{
				OFFSET -2.28137 -6.26801 0.00000
				CHANNELS 3 Zrotation Yrotation Xrotation
				JOINT RightAnkle
				{
					OFFSET -2.28681 -6.28298 0.00000
					CHANNELS 3 Zrotation Yrotation Xrotation
					JOINT RightToe
					{
						OFFSET -0.15927 -0.43759 1.61103
						CHANNELS 3 Zrotation Yrotation Xrotation
						End Site
						{
							OFFSET -0.00000 -0.00000 0.84630
						}
					}
				}
			}
		}
	}
	JOINT lowerback
	{
		OFFSET 0 0 0
		CHANNELS 3 Zrotation Yrotation Xrotation
		JOINT Chest
		{
			OFFSET -0.04227 2.04338 -0.00225
			CHANNELS 3 Zrotation Yrotation Xrotation
			JOINT Chest2
			{
				OFFSET -0.02148 2.04482 -0.04273
				CHANNELS 3 Zrotation Yrotation Xrotation
				JOINT lowerneck
				{
					OFFSET 0 0 0
					CHANNELS 3 Zrotation Yrotation Xrotation
					JOINT Neck
					{
						OFFSET 0.09180 1.44629 0.19359
						CHANNELS 3 Zrotation Yrotation Xrotation
						JOINT Head
						{
							OFFSET 0.00887 1.40645 0.14750
							CHANNELS 3 Zrotation Yrotation Xrotation
							End Site
							{
								OFFSET -0.00669 1.50671 0.03707
							}
						}
					}
				}
				JOINT LeftCollar
				{
					OFFSET 0 0 0
					CHANNELS 3 Zrotation Yrotation Xrotation
					JOINT LeftShoulder
					{
						OFFSET 2.17674 1.86763 -0.06520
CHANNELS 3 Zrotation Xrotation Yrotation
						JOINT LeftElbow
						{
OFFSET 0 -4.657760 0.000000
CHANNELS 3 Zrotation Xrotation Yrotation
							JOINT LeftWrist
							{
OFFSET 0 -3.555390 0.000000
CHANNELS 3 Zrotation Xrotation Yrotation
								JOINT lhand
								{
									OFFSET 0 0 0
CHANNELS 3 Zrotation Xrotation Yrotation
									JOINT LFingers
									{
OFFSET 0 -0.707260 0.000000
CHANNELS 3 Zrotation Xrotation Yrotation
										End Site
										{
OFFSET 0 -0.570220 0.000000
										}
									}
								}
								JOINT LThumb
								{
OFFSET 0 0.000000 0.000000
CHANNELS 3 Zrotation Xrotation Yrotation
									End Site
									{
OFFSET 0 -0.578920 0.578920
									}
								}
							}
						}
					}
				}
				JOINT RightCollar
				{
					OFFSET 0 0 0
					CHANNELS 3 Zrotation Yrotation Xrotation
					JOINT RightShoulder
					{
						OFFSET -2.80694 1.55459 -0.32496
CHANNELS 3 Zrotation Xrotation Yrotation
						JOINT RightElbow
						{
OFFSET 0 -4.719250 -0.000000
CHANNELS 3 Zrotation Xrotation Yrotation
							JOINT RightWrist
							{
OFFSET 0 -3.569900 0.000000
CHANNELS 3 Zrotation Xrotation Yrotation
								JOINT rhand
								{
									OFFSET 0 0 0
CHANNELS 3 Zrotation Xrotation Yrotation
									JOINT RFingers
									{
OFFSET 0 -0.507760 0.000000
CHANNELS 3 Zrotation Xrotation Yrotation
										End Site
										{
OFFSET 0 -0.409370 0.000000
										}
									}
								}
								JOINT RThumb
								{
OFFSET 0 0.000000 0.000000
CHANNELS 3 Zrotation Xrotation Yrotation
									End Site
									{
OFFSET 0 -0.415620 0.415620
									}
								}
							}
						}
					}
				}
			}
		}
	}
}
MOTION
Frames: 5
Frame Time: 0.008333333333333333
9.299100 16.328000 18.807000 179.717000 -1.466000 -152.980000 0.000000 0.000000 0.000000 -15.935800 -18.066900 -20.566600 0.188100 2.793400 7.704100 0.187100 -0.859300 -7.911000 5.386800 -13.806600 -42.468000 0.000000 0.000000 0.000000 17.631100 15.991400 -21.052700 -0.145200 -2.456000 6.767600 -0.981200 2.003600 -18.154700 -3.108600 10.868800 -31.838800 -6.096600 -1.162800 -29.880500 -0.221900 -0.418400 -2.728300 2.818900 -0.888700 12.643000 -4.146200 0.149100 0.034400 6.873900 -0.634300 8.938900 2.982100 -0.414700 2.927500 0.000000 0.000000 0.000000 3.323400 -2.210100 -22.596800 8.691700 -14.667700 1.120800 23.142800 6.888700 12.158800 0.000000 0.000000 0.000000 -7.125000 0.000000 0.000000 -2.831500 16.803000 -1.894400 0.000000 0.000000 0.000000 2.702200 0.242900 0.630800 -12.402400 -20.405300 -2.240600 -11.139800 16.477700 44.210100 0.000000 0.000000 0.000000 7.125000 0.000000 -0.000000 41.483300 70.795900 -26.961900
9.299342 16.328909 18.806212 179.732756 -1.458849 -153.006664 0.000000 0.000000 0.000000 -15.933679 -18.022964 -20.533269 0.187130 2.785885 7.683253 0.184858 -0.841483 -7.866276 5.520001 -13.945619 -43.021711 0.000000 0.000000 0.000000 17.635281 16.059637 -20.963253 -0.143200 -2.438789 6.719907 -0.981927 2.037415 -18.153973 -3.016365 10.720509 -31.343932 -6.098539 -1.135651 -29.836746 -0.232748 -0.382767 -2.732300 2.822657 -0.871065 12.615851 -4.098568 0.128738 0.078639 6.863477 -0.664661 8.927568 2.968222 -0.429971 2.916652 0.000000 0.000000 0.000000 3.328733 -2.172891 -22.663704 8.716546 -14.707575 1.127103 22.922031 6.895124 12.135832 0.000000 0.000000 0.000000 -7.125000 0.000000 0.000000 -2.983912 16.849542 -1.993543 0.000000 0.000000 0.000000 2.727046 0.273685 0.596863 -12.415975 -20.425480 -2.245327 -11.158950 16.449702 44.262035 0.000000 0.000000 0.000000 7.125000 0.000000 0.000000 41.575292 70.838624 -27.065043
9.299309 16.329352 18.805403 179.747664 -1.460009 -153.019972 0.000000 0.000000 0.000000 -15.928378 -17.991665 -20.515586 0.186585 2.781678 7.671545 0.183082 -0.827462 -7.830882 5.644700 -14.074588 -43.537810 0.000000 0.000000 0.000000 17.637067 16.124121 -20.895368 -0.141561 -2.424632 6.680716 -0.983990 2.049753 -18.170864 -2.943806 10.603407 -30.953675 -6.088860 -1.117364 -29.809657 -0.238358 -0.361699 -2.731953 2.819969 -0.859939 12.602483 -4.077968 0.115012 0.098601 6.860092 -0.684485 8.921684 2.962423 -0.439858 2.911911 0.000000 0.000000 0.000000 3.325988 -2.148742 -22.722593 8.740354 -14.745734 1.133151 22.707261 6.880579 12.119352 0.000000 0.000000 0.000000 -7.125000 0.000000 0.000000 -3.132528 16.888387 -2.090545 0.000000 0.000000 0.000000 2.740083 0.283862 0.579422 -12.424736 -20.438515 -2.248379 -11.163682 16.432115 44.313504 0.000000 0.000000 0.000000 7.125000 0.000000 0.000000 41.680833 70.876068 -27.173508
9.298764 16.328927 18.804555 179.760997 -1.476614 -153.008457 0.000000 0.000000 0.000000 -15.917166 -17.983847 -20.526979 0.186827 2.783618 7.676817 0.182173 -0.820493 -7.812823 5.753600 -14.184881 -43.984016 0.000000 0.000000 0.000000 17.634401 16.181631 -20.867552 -0.140591 -2.416148 6.657324 -0.988535 2.022180 -18.220497 -2.907809 10.544260 -30.757813 -6.057590 -1.115546 -29.813535 -0.234237 -0.367698 -2.723529 2.805304 -0.860909 12.614724 -4.107602 0.113619 0.073452 6.869788 -0.684727 8.925926 2.971634 -0.439736 2.918517 0.000000 0.000000 0.000000 3.308232 -2.148864 -22.766589 8.762231 -14.780700 1.138726 22.503642 6.827068 12.114928 0.000000 0.000000 0.000000 -7.125000 0.000000 0.000000 -3.274092 16.912930 -2.183568 0.000000 0.000000 0.000000 2.731175 0.255743 0.592633 -12.424555 -20.438273 -2.248318 -11.141624 16.433872 44.364106 0.000000 0.000000 0.000000 7.125000 0.000000 0.000000 41.811549 70.903702 -27.291861
9.298049 16.328037 18.803325 179.761184 -1.487791 -152.995671 0.000000 0.000000 0.000000 -15.922578 -17.993034 -20.530400 0.187451 2.788228 7.689679 0.183299 -0.817128 -7.838567 5.810513 -14.242085 -44.216335 0.000000 0.000000 0.000000 17.638901 16.189402 -20.869801 -0.140512 -2.415763 6.656237 -0.989052 1.930873 -18.246976 -2.971801 10.647945 -31.102856 -6.039507 -1.114746 -29.836072 -0.239149 -0.368355 -2.710102 2.789748 -0.860479 12.640196 -4.117772 0.112225 0.068995 6.873887 -0.686496 8.928006 2.974994 -0.440718 2.920373 0.000000 0.000000 0.000000 3.311381 -2.161664 -22.808126 8.763330 -14.782465 1.139001 22.757943 6.706813 12.121657 0.000000 0.000000 0.000000 -7.125000 0.000000 0.000000 -3.097456 16.880695 -2.067411 0.000000 0.000000 0.000000 2.733843 0.236784 0.618947 -12.434465 -20.452999 -2.251777 -11.112738 16.426598 44.404700 0.000000 0.000000 0.000000 7.125000 0.000000 0.000000 41.927890 70.922007 -27.391854
